<svg width="32" height="34" viewBox="0 0 32 34" fill="none" xmlns="http://www.w3.org/2000/svg">
    <path d="M14.0955 0.404875C14.5716 0.139628 15.1116 0 15.6613 0C16.2109 0 16.7509 0.139628 17.227 0.404875L18.7935 1.27859L25.058 4.77347L29.756 7.39463C30.2322 7.66006 30.6277 8.04192 30.9027 8.50181C31.1777 8.9617 31.3225 9.48341 31.3225 10.0145V23.994C31.3223 24.5252 31.1774 25.0471 30.9025 25.5071C30.6275 25.9672 30.2322 26.3493 29.756 26.6152L25.058 29.2273V11.7606L18.7935 8.26576V15.2555L12.529 11.7606V3.02474C12.5289 2.49363 12.6736 1.97186 12.9486 1.51195C13.2236 1.05204 13.6192 0.670203 14.0955 0.404875Z" fill="#F04D4D" />
    <path d="M12.529 25.735V18.7453L18.7935 22.2401V30.9993C18.7942 31.5239 18.6517 32.0395 18.3805 32.4939C18.1093 32.9484 17.7188 33.3258 17.2485 33.5881L17.227 33.5998C16.7511 33.8657 16.211 34.0057 15.6612 34.0057C15.1115 34.0057 14.5714 33.8657 14.0955 33.5998L12.529 32.7222L6.2645 29.2273L1.56646 26.6087C1.09033 26.3429 0.694959 25.9608 0.420012 25.5007C0.145066 25.0406 0.000216656 24.5188 0 23.9876L0 10.0081C0.000713679 9.4778 0.145834 8.95706 0.42079 8.49811C0.695746 8.03916 1.09086 7.65817 1.56646 7.39338L6.2645 4.77222V22.2466L12.529 25.735Z" fill="#26B6CA" />
  </svg>